<svg xmlns="http://www.w3.org/2000/svg" width="96" height="96" viewBox="0 0 96 96" role="img" aria-label="Announcements profile">
  <defs>
    <linearGradient id="bg" x1="18" y1="12" x2="82" y2="86" gradientUnits="userSpaceOnUse">
      <stop stop-color="#E8F5E9"/>
      <stop offset="1" stop-color="#A5D6A7"/>
    </linearGradient>
  </defs>
  <circle cx="48" cy="48" r="45" fill="url(#bg)"/>
  <circle cx="48" cy="48" r="42" fill="none" stroke="#2E7D32" stroke-width="3"/>
  <path d="M27 50c0-5 4-9 9-9h7l20-11v36L43 55h-7c-5 0-9-4-9-5Z" fill="#2E7D32"/>
  <path d="M35 55l5 14h9l-7-14h-7Z" fill="#1B5E20"/>
  <path d="M67 41c4 2 6 5 6 8s-2 6-6 8" fill="none" stroke="#2E7D32" stroke-width="5" stroke-linecap="round"/>
  <circle cx="31" cy="30" r="4" fill="#66BB6A"/>
  <circle cx="70" cy="25" r="3" fill="#43A047"/>
  <circle cx="75" cy="70" r="4" fill="#66BB6A"/>
</svg>
